<svg width="86" height="32" viewBox="0 0 86 32" fill="none" xmlns="http://www.w3.org/2000/svg">
<path fill-rule="evenodd" clip-rule="evenodd" d="M10.8611 0.13562L0.0065918 25.9818H5.68706L8.0024 20.2259H18.7126L21.028 25.9818H26.854L15.999 0.13562H10.8611ZM13.3575 6.91771L16.7226 15.2399H9.99295L13.3575 6.91771Z" fill="#06ABB8"/>
<mask id="mask0_246861_49069" style="mask-type:luminance" maskUnits="userSpaceOnUse" x="26" y="6" width="21" height="26">
<path fill-rule="evenodd" clip-rule="evenodd" d="M26.4392 6.04646H46.688V31.8644H26.4392V6.04646Z" fill="white"/>
</mask>
<g mask="url(#mask0_246861_49069)">
<path fill-rule="evenodd" clip-rule="evenodd" d="M27.4105 29.8222L29.2805 25.6649C31.2591 26.7955 33.2363 27.4515 35.79 27.4515C39.5311 27.4515 41.293 25.6288 41.293 22.1281V21.1795C39.675 23.1486 37.9125 24.3521 34.9993 24.3521C30.5031 24.3521 26.4392 21.0339 26.4392 15.2356V15.1627C26.4392 9.32836 30.5754 6.04646 34.9993 6.04646C37.9837 6.04646 39.7462 7.32267 41.2211 8.96362V6.41067H46.688V21.5442C46.688 25.0455 45.8604 27.5979 44.2424 29.2386C42.444 31.0623 39.675 31.8645 35.9342 31.8645C32.8051 31.8645 29.8561 31.135 27.4105 29.8222ZM41.293 15.2356V15.1627C41.293 12.5007 39.243 10.6412 36.5815 10.6412C33.9198 10.6412 31.9058 12.5007 31.9058 15.1627V15.2356C31.9058 17.9342 33.9198 19.7574 36.5815 19.7574C39.243 19.7574 41.293 17.8979 41.293 15.2356Z" fill="#06ABB8"/>
</g>
<mask id="mask1_246861_49069" style="mask-type:luminance" maskUnits="userSpaceOnUse" x="70" y="6" width="16" height="21">
<path fill-rule="evenodd" clip-rule="evenodd" d="M70.3485 6.11919H85.9935V26.3218H70.3485V6.11919Z" fill="white"/>
</mask>
<g mask="url(#mask1_246861_49069)">
<path fill-rule="evenodd" clip-rule="evenodd" d="M70.3485 23.368L72.6864 19.7211C74.7722 21.2525 76.9661 22.0544 78.7645 22.0544C80.3469 22.0544 81.0659 21.4716 81.0659 20.5962V20.5235C81.0659 19.32 79.1959 18.9189 77.0742 18.2629C74.3763 17.4602 71.3195 16.184 71.3195 12.3912V12.3182C71.3195 8.34346 74.4849 6.11919 78.3689 6.11919C80.8145 6.11919 83.476 6.95769 85.5619 8.38007L83.476 12.2092C81.5696 11.0786 79.6632 10.3858 78.2605 10.3858C76.93 10.3858 76.2471 10.9688 76.2471 11.7352V11.8079C76.2471 12.9018 78.081 13.4125 80.1669 14.142C82.864 15.0529 85.9936 16.3662 85.9936 19.9397V20.0132C85.9936 24.3524 82.7923 26.3218 78.62 26.3218C75.9232 26.3218 72.9022 25.4095 70.3485 23.368Z" fill="#06ABB8"/>
</g>
<mask id="mask2_246861_49069" style="mask-type:luminance" maskUnits="userSpaceOnUse" x="0" y="0" width="86" height="32">
<path fill-rule="evenodd" clip-rule="evenodd" d="M0.0065918 31.8644H85.9935V0.248169H0.0065918V31.8644Z" fill="white"/>
</mask>
<g mask="url(#mask2_246861_49069)">
<path fill-rule="evenodd" clip-rule="evenodd" d="M49.8744 25.9566H67.6177V23.603H49.8744V25.9566Z" fill="#024C44"/>
<path fill-rule="evenodd" clip-rule="evenodd" d="M58.4715 1.38588C52.9464 1.38588 48.845 5.57869 48.845 10.744V10.8104C48.845 15.9763 52.9138 20.1024 58.4052 20.1024C63.93 20.1024 68.032 15.9093 68.032 10.744V10.6762C68.032 9.7273 67.8934 8.81422 67.6353 7.95456L63.0563 10.4416C63.0615 10.5422 63.0695 10.6423 63.0695 10.744V10.8104C63.0695 13.4607 61.3499 15.708 58.4715 15.708C55.6919 15.708 53.8071 13.3935 53.8071 10.744V10.6762C53.8071 8.02642 55.527 5.77991 58.4052 5.77991C59.0697 5.77991 59.6823 5.91334 60.2304 6.15144L64.8557 3.6831C63.1932 2.25205 60.9826 1.38588 58.4715 1.38588Z" fill="#06ABB8"/>
<path fill-rule="evenodd" clip-rule="evenodd" d="M57.8114 9.86347C58.3431 10.8986 59.2028 11.1565 60.0541 10.7267L68.7309 6.01371V1.62184L64.8556 3.6834L60.2303 6.15174L59.2516 6.67405C57.716 7.41059 57.2956 7.62347 56.8097 7.54889L57.8114 9.86347Z" fill="#E52724"/>
</g>
</svg>
