<svg id="Livello_1" xmlns="http://www.w3.org/2000/svg" viewBox="0 0 473.1 119.5"><style>.st0{fill:#ff631d}.st1{fill:#6c47d5}.st2{fill:none}</style><path class="st0" d="M148.2 81.3c-1.4-1.1-3.1-2-4.8-2.7-1.8-.7-3.6-1.4-5.3-1.9-1.4-.5-2.7-.9-4-1.4-1.3-.4-2.4-.9-3.4-1.4-1-.5-1.7-1-2.3-1.7-.5-.6-.8-1.2-.8-2V70c0-1.3.5-2.3 1.6-3.2 1.1-.9 2.7-1.3 4.7-1.3 1.9 0 4.1.4 6.4 1.2 2.3.8 4.6 1.9 6.9 3.3l.3.2 4.7-8.3-.2-.2c-2.6-1.7-5.4-3.1-8.5-4-5.5-1.7-11.2-2-16-.5-2.1.7-4 1.7-5.5 3-1.6 1.3-2.8 2.9-3.7 4.7-.9 1.8-1.3 3.9-1.3 6.3v.2c0 2.3.5 4.3 1.4 6 .9 1.6 2.1 3 3.6 4 1.4 1.1 3.1 2 4.9 2.6 1.8.7 3.6 1.2 5.3 1.7 1.4.4 2.7.8 4 1.2 1.3.4 2.4.8 3.4 1.3s1.7 1.1 2.3 1.7c.5.6.8 1.3.8 2.1v.2c0 1.5-.6 2.6-1.8 3.5-1.2.9-3 1.3-5.3 1.3-2.4 0-5-.5-7.6-1.5-2.6-1-5.3-2.4-7.8-4.3l-.3-.2-5.2 7.9.2.2c3 2.4 6.4 4.2 9.9 5.4 3.6 1.2 7.1 1.8 10.6 1.8 2.5 0 4.9-.3 7.1-1 2.2-.6 4.1-1.6 5.8-2.9 1.6-1.3 2.9-2.9 3.9-4.8.9-1.9 1.4-4.2 1.4-6.7v-.2c0-2.2-.5-4.1-1.4-5.7-1.4-1.3-2.6-2.6-4-3.7M196.6 64c-1.9-2.4-4.4-4.3-7.3-5.7-2.9-1.4-6.3-2.1-10.1-2.1-3.5 0-6.7.7-9.5 2-2.9 1.3-5.4 3.1-7.5 5.4-2.1 2.3-3.8 5-4.9 8-1.2 3-1.7 6.3-1.7 9.8v.2c0 3.7.6 7.1 1.9 10.2 1.3 3.1 3.1 5.7 5.3 7.9 2.2 2.2 4.9 3.9 7.9 5.1 3 1.2 6.3 1.8 9.8 1.8 4.4 0 8.3-.8 11.5-2.5 3.2-1.6 6-3.9 8.3-6.6l.2-.2-6.9-6.1-.2.2c-1.9 1.8-3.8 3.2-5.8 4.2-1.9.9-4.3 1.4-6.9 1.4-3.5 0-6.5-1-8.9-3-2.4-2-3.9-4.8-4.5-8.4h35v-.3c.1-.5.1-1.1.1-1.6v-1.5c0-3.4-.5-6.8-1.5-9.9-.9-3.2-2.4-6-4.3-8.3m-5.7 13.7h-23.8c.5-3.5 1.8-6.4 3.9-8.5 2.1-2.2 4.9-3.4 8.1-3.4 1.8 0 3.3.3 4.7.9 1.4.6 2.6 1.5 3.6 2.6s1.8 2.4 2.4 3.9c.5 1.4.9 2.9 1.1 4.5m72.7-21.5c-3.7 0-6.9.8-9.5 2.4a24.2 24.2 0 0 0-6.6 5.8c-1.3-2.4-3.1-4.3-5.4-5.8-2.4-1.6-5.4-2.4-8.9-2.4-1.8 0-3.5.2-5 .7-1.5.5-2.9 1.1-4.1 1.9-1.2.8-2.3 1.7-3.2 2.7-.7.7-1.4 1.5-2 2.3v-6.6h-11.6v48.4H219V78.4c0-3.6.9-6.5 2.7-8.6 1.8-2 4.2-3.1 7.2-3.1s5.3 1 6.9 2.9c1.6 1.9 2.5 4.7 2.5 8.4v27.5h11.6V78.3c0-3.8.9-6.7 2.8-8.6 1.8-1.9 4.2-2.9 7.1-2.9 3 0 5.3 1 6.9 2.9 1.6 1.9 2.5 4.8 2.5 8.5v27.5h11.6v-31c0-5.9-1.5-10.5-4.5-13.7-3.2-3.2-7.4-4.8-12.7-4.8m67.3 6.5c-2.1-2.1-4.5-3.8-7.2-4.9-2.7-1.1-5.5-1.7-8.4-1.7-3.9 0-7.2.9-9.9 2.6-2.3 1.5-4.4 3.4-6 5.6V57h-11.6v62.3h11.6V98.7c1.6 2 3.6 3.7 5.9 5.2 2.6 1.7 6 2.6 9.9 2.6 2.9 0 5.7-.6 8.4-1.7s5.2-2.7 7.3-4.9c2.1-2.1 3.8-4.8 5-7.9 1.2-3.1 1.9-6.7 1.9-10.7v-.2c0-4-.6-7.6-1.9-10.7-1.2-2.9-2.9-5.6-5-7.7m-4.7 18.6v.2c0 2.3-.4 4.4-1.1 6.3-.7 1.8-1.7 3.4-2.9 4.7-1.2 1.3-2.6 2.3-4.2 3-1.6.7-3.3 1.1-5.2 1.1-1.8 0-3.6-.4-5.2-1.1-1.6-.7-3.1-1.7-4.3-3-1.2-1.3-2.2-2.9-3-4.7-.7-1.8-1.1-3.9-1.1-6.2v-.2c0-2.2.4-4.3 1.1-6.1.7-1.8 1.7-3.4 3-4.7 1.2-1.3 2.7-2.3 4.3-3 1.6-.7 3.4-1.1 5.2-1.1 1.8 0 3.6.4 5.2 1.1 1.6.7 3 1.7 4.2 3 1.2 1.3 2.2 2.9 2.9 4.7.7 1.6 1.1 3.7 1.1 6m17.5-24.6v48.8h11.6V45.1c-6.4 0-11.6 5.2-11.6 11.6m20.2 16.8h-.3v32.1h11.6V84.8c-.1-6.3-5.1-11.3-11.3-11.3m-.3-5.3h1.7c5.9 0 10.7-4.8 10.7-10.7v-.3h-12.4v11zm55.5 22.4c-1.7 1.7-3.6 3.2-5.5 4.2-1.9 1.1-4.1 1.6-6.7 1.6-2.1 0-4-.4-5.7-1.2-1.7-.8-3.2-1.9-4.4-3.2-1.2-1.4-2.2-3-2.9-4.8-.7-1.8-1-3.8-1-5.9v-.2c0-2.1.3-4 1-5.8.7-1.8 1.6-3.4 2.8-4.7 1.2-1.3 2.6-2.4 4.2-3.2 1.6-.8 3.4-1.2 5.4-1.2 2.7 0 5 .5 6.8 1.6 1.9 1.1 3.7 2.5 5.3 4.2l.2.2 7.2-7.8-.2-.2c-2.2-2.5-4.9-4.5-7.9-6s-6.9-2.3-11.4-2.3c-3.6 0-7 .7-10 2-3.1 1.3-5.8 3.2-8 5.5s-4 5-5.2 8.1c-1.2 3.1-1.9 6.4-1.9 9.8v.2c0 3.4.6 6.7 1.9 9.7 1.2 3 3 5.7 5.2 8s4.9 4.1 7.9 5.4c3 1.3 6.4 2 10 2 2.4 0 4.5-.2 6.4-.7 1.9-.5 3.6-1.1 5.2-1.9 1.6-.8 3.1-1.8 4.4-2.8 1.3-1.1 2.6-2.3 3.7-3.7l.2-.2-7-6.9v.2zm52.5-18.3c-1-3.1-2.4-5.9-4.4-8.3-1.9-2.4-4.4-4.3-7.3-5.7-2.9-1.4-6.3-2.1-10.1-2.1-3.5 0-6.7.7-9.5 2-2.9 1.3-5.4 3.1-7.5 5.4-2.1 2.3-3.8 5-4.9 8-1.2 3-1.7 6.3-1.7 9.8v.2c0 3.7.6 7.1 1.9 10.2 1.3 3.1 3.1 5.7 5.3 7.9 2.2 2.2 4.9 3.9 7.9 5.1 3 1.2 6.3 1.8 9.8 1.8 4.4 0 8.3-.8 11.5-2.5 3.2-1.6 6-3.9 8.3-6.6l.2-.2-6.9-6.1-.2.2c-1.9 1.8-3.8 3.2-5.8 4.2-1.9.9-4.3 1.4-6.9 1.4-3.5 0-6.5-1-8.9-3-2.4-2-3.9-4.8-4.5-8.4h35v-.3c.1-.5.1-1.1.1-1.6v-1.5c.1-3.5-.4-6.8-1.4-9.9m-10.1 5.4h-23.8c.5-3.5 1.8-6.4 3.9-8.5 2.1-2.2 4.9-3.4 8.1-3.4 1.8 0 3.3.3 4.7.9 1.4.6 2.6 1.5 3.6 2.6s1.8 2.4 2.4 3.9c.6 1.4.9 2.9 1.1 4.5"/><path class="st1" d="M132.1 44.1c-2.1 0-4.1-.4-6-1.1-1.9-.8-3.5-1.8-4.8-3.2-1.4-1.4-2.4-3-3.3-4.9-.8-1.9-1.2-3.9-1.2-6.1v-.1c0-2.2.4-4.2 1.2-6 .8-1.9 1.9-3.5 3.3-4.9 1.4-1.4 3-2.5 4.9-3.3 1.9-.8 4-1.2 6.2-1.2 3 0 5.5.6 7.6 1.7 2 1.1 3.7 2.6 5 4.5l-6.2 4.8c-.8-1.1-1.8-1.9-2.8-2.5-1-.6-2.2-.9-3.7-.9-1 0-2 .2-2.9.6-.9.4-1.6 1-2.2 1.7-.6.7-1.1 1.5-1.5 2.5s-.5 2-.5 3v.1c0 1.1.2 2.1.5 3.1.4 1 .8 1.8 1.5 2.5.6.7 1.4 1.3 2.2 1.7.9.4 1.8.6 2.9.6 1.5 0 2.8-.3 3.8-1s2-1.5 2.8-2.6l6.2 4.4c-.7 1-1.5 1.8-2.3 2.7-.8.8-1.8 1.5-2.8 2.1-1.1.6-2.2 1.1-3.5 1.4-1.3.2-2.8.4-4.4.4m30.3 0c-2.3 0-4.4-.4-6.3-1.2-1.9-.8-3.6-1.9-5-3.3s-2.5-3-3.3-4.9c-.8-1.9-1.2-3.8-1.2-6v-.1c0-2.1.4-4.1 1.2-6 .8-1.9 1.9-3.5 3.4-4.9 1.4-1.4 3.1-2.5 5.1-3.3 1.9-.8 4.1-1.2 6.3-1.2 2.3 0 4.4.4 6.3 1.2 1.9.8 3.6 1.9 5 3.3s2.5 3 3.3 4.9c.8 1.9 1.2 3.8 1.2 6v.1c0 2.1-.4 4.1-1.2 6-.8 1.9-1.9 3.5-3.4 4.9-1.4 1.4-3.1 2.5-5.1 3.3-1.9.8-4 1.2-6.3 1.2m.1-7.4c1.1 0 2.2-.2 3.1-.6.9-.4 1.7-1 2.4-1.7.6-.7 1.2-1.6 1.5-2.5.4-1 .5-2 .5-3v-.1c0-1.1-.2-2.1-.5-3-.4-1-.9-1.8-1.6-2.5-.7-.7-1.5-1.3-2.4-1.8-.9-.4-2-.7-3.1-.7s-2.1.2-3.1.6c-.9.4-1.7 1-2.3 1.7-.6.7-1.2 1.6-1.5 2.5-.4 1-.5 2-.5 3v.1c0 1.1.2 2.1.5 3 .4 1 .9 1.8 1.5 2.5.7.7 1.5 1.3 2.4 1.8.9.5 2 .7 3.1.7M181 13.9h8.6l7.1 11.5 7-11.5h8.7v29.6h-8.2v-17l-7.5 11.6h-.2L189 26.6v16.9h-8zm35.6 0h12.7c1.9 0 3.5.2 5.1.7 1.5.5 2.8 1.1 3.9 2 1.1.9 1.9 2 2.5 3.3s.9 2.8.9 4.4v.1c0 1.7-.3 3.3-.9 4.6-.6 1.3-1.5 2.4-2.6 3.3s-2.5 1.6-4 2c-1.6.5-3.3.7-5.1.7H225v8.4h-8.2V13.9zm12.1 14.7c1.5 0 2.6-.3 3.4-1 .8-.7 1.2-1.6 1.2-2.8v-.1c0-1.3-.4-2.2-1.2-2.9-.8-.7-2-1-3.5-1h-3.8v7.8h3.9zm21-14.9h7.9l12.6 29.8h-8.8l-2.2-5.3h-11.4l-2.1 5.3h-8.6l12.6-29.8zm7.2 18.1l-3.3-8.4-3.3 8.4h6.6zm15.4-17.9h14c2.3 0 4.2.3 5.8.8 1.6.6 2.9 1.4 3.8 2.4 1.7 1.7 2.6 4 2.6 6.9v.1c0 2.3-.5 4.2-1.6 5.7s-2.6 2.6-4.4 3.4l7.1 10.3H290l-6-9h-3.5v9h-8.2V13.9zm13.6 14.2c1.4 0 2.5-.3 3.3-.9.8-.6 1.1-1.5 1.1-2.6v-.1c0-1.2-.4-2.1-1.2-2.6-.8-.6-1.9-.9-3.3-.9h-5.4v7.1h5.5zm28-14.4h7.9l12.6 29.8h-8.8l-2.2-5.3H312l-2.1 5.3h-8.6l12.6-29.8zm7.1 18.1l-3.3-8.4-3.3 8.4h6.6zm-268.3 18c0 5.3-4.3 9.7-9.7 9.7s-9.7-4.3-9.7-9.7c0-5.3 4.3-9.7 9.7-9.7 5.4.1 9.7 4.4 9.7 9.7m28.1-7.2c-5.7 1.6-10.5 5.5-13.1 10.7-.2.4-.7.5-1 .3-2.4-1.9-3.9-5-3.6-8.4.4-4.5 3.9-8.2 8.4-8.8 4.3-.5 8.1 1.7 9.9 5.2 0 .4-.2.9-.6 1m4.1 13.7c.4-.6 1.3-.3 1.2.4-.4 5.1-2.1 10.1-5.1 14.5-8.9 13-26.3 16-38.8 6.7-2.4-1.8-4.4-3.9-6.1-6.2-.4-.6.2-1.3.8-1 4.8 2.3 10.2 3.6 15.9 3.6 13.5 0 25.3-7.2 32.1-18"/><path class="st0" d="M94.5 25l1.9 1.9 1.7 1.8V13.9l-.4-.3C86.3 4.2 71.8-.6 57 .1 42.1.8 28 7 17.5 17.5 6.2 28.8 0 43.8 0 59.8s6.2 31 17.5 42.3c10.6 10.6 24.6 16.8 39.5 17.4.9 0 1.8.1 2.8.1 13.8 0 27.2-4.8 37.9-13.6l.4-.3V90.6l-1.8 2c-.6.7-1.2 1.3-1.8 1.9-19.1 19.1-50.3 19.1-69.4 0-9.3-9.3-14.4-21.6-14.4-34.7 0-13.1 5.1-25.4 14.4-34.7C44.2 5.9 75.3 5.9 94.5 25"/><path class="st2" d="M0 0h473.1v119.5H0z"/></svg>