<?xml version="1.0" encoding="UTF-8"?> <svg xmlns="http://www.w3.org/2000/svg" width="86" height="125" viewBox="0 0 86 125" fill="none"><g clip-path="url(#clip0_1288_125)"><path d="M57.1373 29.9723V60.8094C57.1373 61.0709 56.9252 61.283 56.667 61.283H26.1606C25.8045 61.283 25.5771 60.9039 25.7441 60.5896L39.832 34.2065C40.0144 33.8691 40.5034 33.8768 40.6693 34.2219L48.0336 49.2058C48.2534 49.653 48.9248 49.4981 48.928 49.0014L49.2467 0.473725C49.25 -0.00760623 48.6105 -0.182336 48.3676 0.235257L7.49276 70.5888C7.31036 70.9031 7.53452 71.2976 7.89822 71.2976H77.6237C77.972 71.2976 78.1994 70.9294 78.0478 70.6151L58.035 29.7668C57.8109 29.3195 57.1406 29.4745 57.1406 29.9712" fill="#FF5613"></path><path d="M13.8682 110.255C11.8782 110.255 10.0399 109.933 8.35321 109.288C6.66652 108.644 5.204 107.742 3.96783 106.578C2.73166 105.414 1.75811 104.023 1.05706 102.412C0.351621 100.801 0 99.0231 0 97.079V97.0065C0 95.1647 0.345029 93.4361 1.03069 91.8207C1.71635 90.2096 2.66793 88.7997 3.87333 87.5975C5.07873 86.3963 6.52697 85.4557 8.20926 84.7776C9.89265 84.0996 11.7189 83.7578 13.6825 83.7578C15.9372 83.7578 17.8854 84.0842 19.5227 84.7392C21.1599 85.3941 22.6576 86.3051 24.0179 87.4689L19.8677 92.4536C18.9469 91.68 18.0063 91.0811 17.0481 90.6723C16.09 90.2635 14.9791 90.0547 13.7165 90.0547C12.7957 90.0547 11.9386 90.2371 11.1508 90.6009C10.3629 90.9646 9.67618 91.4613 9.09271 92.0943C8.50924 92.7273 8.04993 93.4669 7.7093 94.3119C7.36867 95.1647 7.20165 96.0713 7.20165 97.0417V97.1142C7.20165 98.134 7.37196 99.078 7.7137 99.9538C8.05433 100.825 8.53671 101.573 9.15424 102.195C9.77617 102.812 10.5069 103.298 11.3453 103.651C12.1826 104.003 13.1155 104.177 14.1385 104.177C15.7944 104.177 17.1558 103.829 18.2283 103.123V100.03H13.2067V94.8592H24.9256V106.322C23.5652 107.441 21.9654 108.373 20.1237 109.128C18.2777 109.878 16.1933 110.257 13.8627 110.257H13.8704L13.8682 110.255Z" fill="#FF5613"></path><path d="M29.0066 84.2666H36.1016V109.743H29.0066V84.2666Z" fill="#FF5613"></path><path d="M40.7639 84.2666H61.1437V90.4525H47.8205V94.7471H59.8701V100.645H47.8205V109.743H40.7595V84.2666H40.7628H40.7639Z" fill="#FF5613"></path><path d="M71.2979 90.4525H63.6567V84.2666H86.0001V90.4525H78.3589V109.743H71.2979V90.4525Z" fill="#FF5613"></path><path d="M28.6584 116.402V117.543C28.3023 117.289 27.9837 117.161 27.6991 117.161C27.3925 117.161 27.142 117.271 26.9453 117.487C26.7519 117.691 26.653 117.965 26.653 118.31C26.653 118.613 26.7212 118.872 26.8618 119.091C26.9343 119.209 27.0508 119.356 27.2101 119.542C27.3695 119.728 27.5815 119.944 27.843 120.206C28.3166 120.687 28.643 121.105 28.8133 121.456C28.9836 121.797 29.0715 122.215 29.0715 122.707C29.0715 123.378 28.8825 123.931 28.5067 124.363C28.1276 124.787 27.6464 124.999 27.0552 124.999C26.5585 124.999 26.1344 124.863 25.7817 124.589V123.433C26.1981 123.737 26.5739 123.888 26.9145 123.888C27.2332 123.888 27.4793 123.782 27.6617 123.574C27.8441 123.362 27.9309 123.074 27.9309 122.714C27.9309 122.399 27.8628 122.118 27.7222 121.868C27.6497 121.748 27.5519 121.61 27.4222 121.455C27.2936 121.3 27.1343 121.126 26.9442 120.935C26.6486 120.643 26.4025 120.386 26.2091 120.162C26.0157 119.938 25.8718 119.741 25.7773 119.574C25.5993 119.244 25.5081 118.827 25.5081 118.331C25.5081 117.653 25.6828 117.115 26.0344 116.72C26.3904 116.322 26.864 116.121 27.4672 116.121C27.8837 116.121 28.2782 116.22 28.6573 116.421V116.402H28.6584Z" fill="#FF5613"></path><path d="M33.4227 122.032C33.4227 123.999 32.8162 124.982 31.5998 124.982C30.3834 124.982 29.7769 123.985 29.7769 121.991C29.7769 119.996 30.3834 118.988 31.5965 118.988C31.9108 118.988 32.18 119.045 32.4118 119.166C32.6426 119.284 32.8327 119.47 32.9799 119.723C33.1282 119.974 33.2414 120.288 33.3139 120.675C33.3865 121.054 33.4238 121.509 33.4238 122.036V122.032H33.4227ZM32.3118 122.006C32.3118 121.244 32.2624 120.714 32.1602 120.41C32.058 120.107 31.88 119.955 31.6218 119.955C31.3635 119.955 31.1855 120.107 31.0757 120.406C30.9735 120.706 30.924 121.225 30.924 121.972C30.924 122.719 30.9735 123.238 31.0757 123.533C31.1822 123.833 31.3635 123.981 31.6218 123.981C31.88 123.981 32.0536 123.832 32.1558 123.537C32.258 123.26 32.3107 122.749 32.3107 122.005L32.3118 122.006Z" fill="#FF5613"></path><path d="M34.4194 115.353H35.4919V124.89H34.4194V115.353Z" fill="#FF5613"></path><path d="M36.7126 119.08H37.7851V122.961C37.7928 123.321 37.8455 123.575 37.9444 123.73C38.0433 123.882 38.2092 123.961 38.4411 123.961C38.6729 123.961 38.8542 123.893 38.9531 123.757C39.052 123.616 39.0971 123.37 39.0971 123.017V119.075H40.1695V122.551C40.1695 123.362 40.1091 123.904 39.9871 124.178C39.7366 124.708 39.218 124.973 38.4257 124.973C37.8038 124.973 37.3642 124.818 37.1027 124.503C36.8412 124.184 36.7083 123.653 36.7083 122.915V119.075L36.7115 119.078L36.7126 119.08Z" fill="#FF5613"></path><path d="M41.5111 117.456H42.5835V119.082H43.167V119.935H42.5835V124.889H41.5111V119.935H40.9199V119.082H41.5111V117.456Z" fill="#FF5613"></path><path d="M44.4371 116.611C44.6305 116.611 44.8008 116.679 44.9448 116.823C45.0887 116.967 45.1569 117.134 45.1569 117.336C45.1569 117.537 45.0843 117.71 44.9448 117.851C44.8008 117.992 44.6305 118.063 44.4294 118.063C44.2284 118.063 44.0547 117.99 43.9141 117.851C43.7734 117.71 43.7053 117.537 43.7053 117.328C43.7053 117.134 43.7778 116.964 43.9174 116.823C44.0723 116.679 44.247 116.611 44.4404 116.611H44.4371ZM43.9328 119.08H45.0096V124.891H43.9328V119.08Z" fill="#FF5613"></path><path d="M49.6447 122.032C49.6447 123.999 49.0348 124.982 47.8173 124.982C46.5998 124.982 45.9944 123.985 45.9944 121.991C45.9944 119.996 46.6009 118.988 47.814 118.988C48.1283 118.988 48.3975 119.045 48.6293 119.166C48.8601 119.284 49.0502 119.47 49.2018 119.723C49.3502 119.974 49.4634 120.288 49.5359 120.675C49.6084 121.054 49.6458 121.509 49.6458 122.036V122.032H49.6447ZM48.5338 122.006C48.5338 121.244 48.4843 120.714 48.3821 120.41C48.2799 120.107 48.1019 119.955 47.8437 119.955C47.5855 119.955 47.4075 120.107 47.2976 120.406C47.1954 120.706 47.1459 121.225 47.1459 121.972C47.1459 122.719 47.1987 123.238 47.2976 123.533C47.4042 123.833 47.5855 123.981 47.8437 123.981C48.1019 123.981 48.2755 123.832 48.3777 123.537C48.4843 123.26 48.5327 122.749 48.5327 122.005L48.5338 122.006Z" fill="#FF5613"></path><path d="M50.6455 119.079H51.718V119.751C52.0212 119.239 52.4234 118.989 52.908 118.989C53.3925 118.989 53.7156 119.172 53.9167 119.546C54.0299 119.755 54.0837 120.161 54.0837 120.763V124.891H53.0113V121.009C53.008 120.615 52.9585 120.338 52.8673 120.172C52.7728 120.009 52.6135 119.926 52.386 119.926C52.2652 119.926 52.1586 119.949 52.0751 119.99C51.9916 120.032 51.9234 120.104 51.8707 120.199C51.8179 120.295 51.7795 120.419 51.7575 120.571C51.7344 120.726 51.7234 120.911 51.7234 121.139V124.892H50.651V119.08H50.6477L50.6455 119.079Z" fill="#FF5613"></path><path d="M57.5439 119.201V120.205C57.2824 120.012 57.0055 119.913 56.7176 119.913C56.6231 119.913 56.5319 119.931 56.4484 119.965C56.3648 119.999 56.2934 120.044 56.2319 120.102C56.1671 120.159 56.1187 120.23 56.0836 120.31C56.0495 120.39 56.0308 120.477 56.0308 120.564C56.0308 120.841 56.2813 121.171 56.7813 121.553C56.9857 121.708 57.1527 121.857 57.289 121.99C57.4219 122.126 57.5274 122.251 57.5999 122.372C57.7439 122.607 57.8197 122.906 57.8197 123.263C57.8197 123.786 57.668 124.203 57.3648 124.514C57.0659 124.825 56.6593 124.98 56.1594 124.98C55.8484 124.98 55.5341 124.889 55.2155 124.703V123.664C55.5265 123.895 55.822 124.013 56.0945 124.013C56.5835 124.013 56.8296 123.77 56.8296 123.289C56.8296 123.111 56.7846 122.951 56.6934 122.823C56.6516 122.758 56.5868 122.682 56.5 122.603C56.4088 122.519 56.2989 122.425 56.1704 122.318C55.7198 121.965 55.4122 121.67 55.2495 121.431C55.0946 121.185 55.0144 120.885 55.0144 120.54C55.0144 120.074 55.1583 119.687 55.4462 119.387C55.7385 119.092 56.1176 118.943 56.5835 118.943C56.9132 118.943 57.2318 119.027 57.5428 119.197L57.5439 119.201Z" fill="#FF5613"></path><path d="M65.4685 0.102539C65.4685 0.102539 55.1363 6.26644 57.5889 22.0921C57.5889 22.0921 68.9221 12.8578 65.4685 0.102539Z" fill="#FF5613"></path><path d="M73.0417 11.1826C73.0417 11.1826 64.5479 12.6914 62.1602 23.9269C62.1602 23.9269 72.1055 20.618 73.0417 11.1826Z" fill="#FF5613"></path><path d="M73.9097 24.3588C73.9097 24.3588 69.1342 21.7543 63.5435 26.3523C63.5435 26.3523 69.7485 28.6347 73.9097 24.3588Z" fill="#FF5613"></path></g><defs><clipPath id="clip0_1288_125"><rect width="86" height="125" fill="white"></rect></clipPath></defs></svg> 