<?xml version="1.0" encoding="UTF-8"?>
<svg id="Livello_1" data-name="Livello 1" xmlns="http://www.w3.org/2000/svg" viewBox="0 0 371 66.42">
  <defs>
    <style>
      .cls-1 {
        fill: #4bb0fa;
      }

      .cls-2 {
        fill: #2e5bfd;
      }

      .cls-3 {
        fill: #95ce9d;
      }

      .cls-4 {
        fill: #0a2273;
      }

      .cls-5 {
        fill: #9228a5;
      }
    </style>
  </defs>
  <rect class="cls-5" x="17.91" y="27.69" width="11.04" height="11.04" transform="translate(-16.62 26.32) rotate(-45.03)"/>
  <rect class="cls-5" x="27.68" y="37.47" width="11.05" height="11.05" transform="translate(-20.67 36.07) rotate(-44.99)"/>
  <rect class="cls-5" x="37.47" y="27.69" width="11.05" height="11.05" transform="translate(-10.89 40.12) rotate(-44.99)"/>
  <rect class="cls-5" x="27.68" y="17.91" width="11.05" height="11.05" transform="translate(-6.84 30.34) rotate(-44.99)"/>
  <rect class="cls-1" x="2.29" y="27.69" width="11.05" height="11.05" transform="translate(-21.2 15.25) rotate(-45)"/>
  <rect class="cls-1" x="27.68" y="53.09" width="11.05" height="11.05" transform="translate(-31.72 40.65) rotate(-45)"/>
  <rect class="cls-1" x="53.08" y="27.69" width="11.04" height="11.04" transform="translate(-6.31 51.2) rotate(-45.03)"/>
  <rect class="cls-1" x="27.68" y="2.29" width="11.05" height="11.05" transform="translate(4.2 25.77) rotate(-45)"/>
  <rect class="cls-2" x="10.1" y="19.88" width="11.04" height="11.04" transform="translate(-13.39 18.5) rotate(-45.03)"/>
  <path class="cls-2" d="M25.4,58.61l-.1-.09c-4.26-4.26-4.26-11.17,0-15.43l.1-.09,7.81,7.81-7.81,7.81Z"/>
  <rect class="cls-2" x="45.28" y="35.5" width="11.04" height="11.04" transform="translate(-14.13 47.93) rotate(-45)"/>
  <path class="cls-2" d="M41.02,7.81l.1.09c4.26,4.26,4.26,11.17,0,15.43l-.1.09-7.81-7.81,7.81-7.81Z"/>
  <path class="cls-3" d="M23.43,41.02l-.1.09c-4.27,4.26-11.18,4.26-15.43,0l-.1-.09,7.81-7.81,7.81,7.81Z"/>
  <path class="cls-3" d="M41.02,58.61l.1-.09c4.26-4.26,4.26-11.17,0-15.43l-.1-.09-7.81,7.81,7.81,7.81Z"/>
  <path class="cls-3" d="M42.99,25.4l.09-.09c4.26-4.26,11.17-4.26,15.44,0l.09.09-7.8,7.81-7.81-7.81Z"/>
  <path class="cls-3" d="M25.4,7.81l-.1.09c-4.26,4.26-4.26,11.17,0,15.43l.1.09,7.81-7.81-7.81-7.81Z"/>
  <path class="cls-4" d="M75.72,55.06l2.66-.54c1.84-.34,2.45-.75,2.45-4.64V16.26c0-3.89-.61-4.23-2.45-4.64l-2.66-.55v-1.64h20.4c11.45,0,17.52,3.27,17.52,11.18,0,6.21-4.3,9.55-12.01,10.77v.34c9.34.95,14.39,4.36,14.39,11.66,0,8.66-6.68,13.3-18,13.3h-22.3v-1.64ZM95.44,30.71c5.66,0,8.11-2.93,8.11-8.87,0-7.5-2.52-9.68-8.05-9.68-1.84,0-3.61.2-4.5.41v18.14h4.44ZM105.25,43.8c0-7.57-2.52-10.43-9.07-10.43h-5.18v15.82c0,4.23.75,4.77,5.94,4.77s8.32-2.73,8.32-10.16"/>
  <path class="cls-4" d="M119.09,48.51c0-5.8,4.91-8.39,11.25-9.89l8.05-1.98v-6.34c0-5.25-.88-7.3-5.46-7.3-2.45,0-3.14.54-3.34,2.52-.34,3.48-1.3,5.32-4.64,5.32-2.79,0-4.16-1.57-4.16-3.82,0-4.36,6.14-6.48,14.05-6.48,8.32,0,12.68,2.8,12.68,9.21v19.71c0,2.25.41,3.27,1.71,3.95.82.41,2.05.61,3.2.61v1.43c-1.16.89-3.82,2.05-7.09,2.05-3.75,0-5.86-1.57-6.47-4.09h-.34c-1.71,2.25-5.05,4.16-9.21,4.16-6.34,0-10.23-3.27-10.23-9.07M138.39,50.83v-10.98l-3.96.41c-3.88.34-6.27,2.05-6.27,7.02,0,4.23,2.11,6.07,5.32,6.07,2.46,0,4.16-1.16,4.91-2.52"/>
  <path class="cls-4" d="M230.6,48.51c0-5.8,4.91-8.39,11.25-9.89l8.05-1.98v-6.34c0-5.25-.88-7.3-5.46-7.3-2.45,0-3.14.54-3.34,2.52-.34,3.48-1.3,5.32-4.64,5.32-2.79,0-4.16-1.57-4.16-3.82,0-4.36,6.14-6.48,14.05-6.48,8.32,0,12.69,2.8,12.69,9.21v19.71c0,2.25.4,3.27,1.7,3.95.82.41,2.05.61,3.2.61v1.43c-1.16.89-3.82,2.05-7.09,2.05-3.75,0-5.86-1.57-6.47-4.09h-.34c-1.71,2.25-5.05,4.16-9.21,4.16-6.34,0-10.23-3.27-10.23-9.07M249.9,50.83v-10.98l-3.95.41c-3.89.34-6.28,2.05-6.28,7.02,0,4.23,2.11,6.07,5.32,6.07,2.46,0,4.16-1.16,4.91-2.52"/>
  <path class="cls-4" d="M274.24,55.06l2.86-.54c1.91-.34,2.45-.75,2.45-4.64V16.26c0-3.89-.54-4.3-2.45-4.64l-2.86-.55v-1.64h20.94v1.64l-2.86.55c-2.05.41-2.46.75-2.46,4.64v33.62c0,3.89.41,4.23,2.46,4.64l2.86.54v1.64h-20.94v-1.64Z"/>
  <path class="cls-4" d="M320.11,4.94c-9.83,0-16.24,5.39-16.24,14.25v2.32l-4.77,2.11v1.5h4.77v25.71c0,2.8-.34,3.21-2.18,3.75l-2.18.55v1.57h18.62v-1.57l-3-.61c-1.84-.34-2.11-.75-2.11-3.96v-25.43h5.11v-3.55h-5.11v-6.75c0-5.8,2.59-7.5,5.25-7.5.82,0,1.09.34,1.3,1.84.28,2.93,1.57,4.16,4.37,4.16,2.45,0,3.82-1.43,3.82-3.62,0-3-2.66-4.77-7.64-4.77"/>
  <path class="cls-4" d="M336.49,50.83v-29.25h-13.5v1.57l2.19.55c1.84.48,2.18.82,2.18,3.75v23.39c0,2.8-.34,3.2-2.18,3.75l-2.19.55v1.57h17.86v-1.57l-2.18-.55c-1.84-.48-2.18-.82-2.18-3.75"/>
  <path class="cls-4" d="M193.4,54.58c-1.78-.48-2.18-.89-2.18-3.75v-21.14c0-6.14-2.8-9.07-9-9.07-4.71,0-9.34,2.18-12.82,4.64v-3.68h-13.5v1.57l2.18.55c1.84.48,2.18.82,2.18,3.75v23.39c0,2.8-.34,3.2-2.18,3.75l-2.18.55v1.57h17.66v-1.57l-2.12-.55c-1.77-.48-2.04-.68-2.04-3.75v-23.53c1.7-.41,4.7-1.23,7.5-1.23,3.62,0,5.18,1.43,5.18,5.8v18.96c0,3.07-.27,3.27-2.04,3.75l-2.12.55v1.57h17.66v-1.57l-2.18-.55Z"/>
  <path class="cls-4" d="M196.48,39.37c0-14.39,11.05-18.82,20.05-18.82,6.61,0,10.23,2.25,10.23,6.14,0,2.45-1.78,4.3-4.44,4.3-3.21,0-4.16-2.04-4.5-4.64-.33-2.8-.89-3.27-3.14-3.27-4.56,0-8.93,2.86-8.93,13.57s3.21,15.75,10.84,15.75c4.3,0,7.85-1.43,10.23-2.66v2.11c-1.97,2.18-6.88,5.66-13.77,5.66-10.7,0-16.57-7.3-16.57-18.14"/>
  <path class="cls-4" d="M359.97,23.16c-.3-.06-7.75-1.12-7.75,4.62,0,2.8,1.83,4.71,7.52,6.82,7.6,2.73,11.25,5.8,11.25,11.05,0,6.89-5.48,11.86-15.04,11.86-4.01,0-7.84-.63-10.72-1.52l-.2-10.34h1.7c.87,10.13,10.2,9.41,10.2,9.41,3.66,0,6.4-1.98,6.4-5.32s-2.32-4.98-8.3-7.23c-6.18-2.32-10.19-5.32-10.19-10.98,0-6.41,5.56-10.98,14.2-10.98,3.94,0,7.21.63,9.39,1.45l.2,8.92h-1.7c-.26-5.75-4.33-7.33-6.96-7.76"/>
</svg>