<?xml version="1.0" encoding="UTF-8"?>
<svg id="Livello_1" data-name="Livello 1" xmlns="http://www.w3.org/2000/svg" viewBox="0 0 271 127.82">
  <defs>
    <style>
      .cls-1 {
        fill: #4bb0fa;
      }

      .cls-2 {
        fill: #2e5bfd;
      }

      .cls-3 {
        fill: #95ce9d;
      }

      .cls-4 {
        fill: #0a2273;
      }

      .cls-5 {
        fill: #9228a5;
      }
    </style>
  </defs>
  <path class="cls-4" d="M145.12,18.73h-.25v-2.93h-9.6v1.14l1.59.4c1.34.35,1.59.6,1.59,2.74v17.28c0,.5,0,.9-.04,1.22-.03.32-.11.57-.22.77-.12.2-.28.35-.5.45-.22.1-.49.2-.82.3l-1.59.4v1.14h13.32v-1.14l-1.99-.4c-.3-.07-.55-.14-.74-.22s-.36-.22-.47-.4c-.11-.18-.19-.44-.22-.77-.03-.33-.05-.78-.05-1.34v-16.74c.2-.2.44-.4.72-.6.28-.2.57-.37.87-.52.3-.15.6-.27.9-.37.3-.1.56-.15.79-.15s.41.05.55.15c.13.1.26.3.4.6.2.33.39.63.57.89.18.26.4.48.64.64.25.17.55.3.89.4.35.1.79.15,1.32.15.86,0,1.59-.29,2.19-.87.6-.58.89-1.4.89-2.46,0-1.13-.31-1.98-.94-2.56-.63-.58-1.51-.87-2.63-.87-.66,0-1.33.12-2.01.35-.68.23-1.33.52-1.96.87-.63.35-1.22.74-1.77,1.17-.55.43-1.02.86-1.42,1.29"/>
  <path class="cls-4" d="M267.86,37.41V4.94h-10.07v1.13l1.57.39c1.32.34,1.57.59,1.57,2.69v28.26c0,2.01-.24,2.3-1.57,2.69l-1.57.39v1.13h13.21v-1.13l-1.57-.39c-1.32-.34-1.57-.58-1.57-2.69"/>
  <path class="cls-4" d="M209.66,40.08c-1.31-.35-1.6-.65-1.6-2.76v-15.53c0-4.51-2.06-6.66-6.62-6.66-3.46,0-6.86,1.6-9.42,3.41v-2.71h-9.92v1.15l1.6.4c1.35.35,1.6.6,1.6,2.75v17.19c0,2.06-.25,2.36-1.6,2.76l-1.6.4v1.15h12.98v-1.15l-1.56-.4c-1.3-.35-1.5-.5-1.5-2.76v-17.29c1.25-.3,3.45-.9,5.51-.9,2.66,0,3.81,1.05,3.81,4.26v13.93c0,2.26-.2,2.41-1.5,2.76l-1.56.4v1.15h12.98v-1.15l-1.6-.4Z"/>
  <path class="cls-4" d="M68.25,65.4c-.22-.04-5.69-.82-5.69,3.39,0,2.05,1.35,3.46,5.52,5.01,5.58,2,8.26,4.26,8.26,8.11,0,5.06-4.02,8.71-11.04,8.71-2.94,0-5.76-.47-7.87-1.12l-.15-7.6h1.25c.64,7.43,7.49,6.91,7.49,6.91,2.69,0,4.7-1.45,4.7-3.9s-1.7-3.65-6.1-5.31c-4.54-1.7-7.48-3.91-7.48-8.06,0-4.71,4.08-8.06,10.43-8.06,2.89,0,5.29.46,6.89,1.06l.15,6.55h-1.25c-.19-4.22-3.18-5.38-5.11-5.7"/>
  <path class="cls-4" d="M233.48,65.4c-.22-.04-5.69-.82-5.69,3.39,0,2.05,1.35,3.46,5.52,5.01,5.58,2,8.26,4.26,8.26,8.11,0,5.06-4.02,8.71-11.04,8.71-2.94,0-5.76-.47-7.87-1.12l-.15-7.6h1.25c.64,7.43,7.49,6.91,7.49,6.91,2.69,0,4.7-1.45,4.7-3.9s-1.7-3.65-6.1-5.31c-4.54-1.7-7.48-3.91-7.48-8.06,0-4.71,4.08-8.06,10.43-8.06,2.89,0,5.29.46,6.89,1.06l.15,6.55h-1.25c-.19-4.22-3.18-5.38-5.11-5.7"/>
  <path class="cls-4" d="M239.49,42.27c-2.34,0-4.17-.58-5.51-1.73-1.33-1.15-2-2.79-2-4.93,0-1.07.21-1.99.63-2.78.42-.78,1-1.46,1.75-2.03.75-.57,1.63-1.05,2.63-1.45,1-.4,2.09-.73,3.26-1l5.91-1.45v-4.61c0-.96-.05-1.78-.15-2.46-.1-.68-.3-1.22-.6-1.64-.3-.41-.71-.72-1.23-.92-.52-.2-1.19-.3-2.03-.3-.9,0-1.52.12-1.85.37-.34.24-.54.73-.6,1.45-.13,1.25-.43,2.2-.88,2.85-.45.66-1.29.98-2.53.98-1.04,0-1.8-.26-2.31-.78-.5-.52-.75-1.19-.75-2.03s.27-1.5.8-2.1c.53-.6,1.26-1.09,2.18-1.48.92-.38,2-.68,3.26-.88,1.25-.2,2.61-.3,4.08-.3,3.07,0,5.39.54,6.96,1.6,1.57,1.07,2.36,2.79,2.36,5.16v14.48c0,.84.09,1.46.27,1.88.18.42.51.76.98,1.03.3.17.66.29,1.07.35.42.07.84.1,1.28.1v1.05c-.43.33-1.11.67-2.03,1-.92.33-1.98.5-3.18.5-1.4,0-2.49-.27-3.26-.8-.77-.53-1.27-1.27-1.5-2.2h-.25c-.63.83-1.54,1.55-2.71,2.15-1.17.6-2.52.9-4.06.9M242.55,39.17c.9,0,1.66-.18,2.28-.55.62-.37,1.06-.8,1.33-1.3v-8.06l-2.91.3c-1.44.13-2.56.57-3.38,1.3-.82.73-1.23,2.02-1.23,3.86,0,1.57.36,2.71,1.08,3.41.72.7,1.66,1.05,2.83,1.05"/>
  <path class="cls-4" d="M182.91,90.63c-1.97,0-3.72-.32-5.24-.95-1.52-.63-2.79-1.53-3.81-2.71-1.02-1.17-1.8-2.57-2.33-4.21-.54-1.64-.8-3.46-.8-5.46,0-2.64.46-4.84,1.38-6.61.92-1.77,2.09-3.19,3.51-4.26,1.42-1.07,3-1.83,4.73-2.28,1.74-.45,3.44-.68,5.11-.68,2.44,0,4.3.39,5.59,1.18,1.28.79,1.93,1.9,1.93,3.33,0,.9-.3,1.65-.9,2.25-.6.6-1.39.9-2.35.9-1.17,0-1.98-.32-2.43-.97-.45-.64-.74-1.45-.88-2.41-.13-1.03-.34-1.68-.63-1.96-.28-.28-.84-.42-1.68-.42s-1.65.15-2.43.45c-.78.3-1.49.82-2.1,1.57-.62.75-1.11,1.76-1.48,3.04s-.55,2.9-.55,4.86c0,3.79.62,6.66,1.85,8.6,1.24,1.94,3.27,2.92,6.11,2.92,1.6,0,3.04-.2,4.31-.61,1.27-.41,2.34-.84,3.2-1.29v1.55c-.37.4-.86.84-1.48,1.33-.62.49-1.36.94-2.23,1.35-.87.42-1.84.77-2.91,1.05-1.07.28-2.24.43-3.51.43"/>
  <path class="cls-4" d="M168.66,42.22c-2.1,0-3.95-.32-5.54-.95-1.59-.63-2.91-1.54-3.96-2.73-1.05-1.18-1.84-2.62-2.38-4.31-.54-1.69-.8-3.58-.8-5.69s.35-3.99,1.05-5.66c.7-1.67,1.64-3.08,2.83-4.23,1.18-1.15,2.54-2.04,4.06-2.65,1.52-.62,3.1-.93,4.74-.93s3.16.22,4.48.67c1.32.45,2.45,1.18,3.38,2.18.93,1,1.65,2.3,2.15,3.88.5,1.59.77,3.52.8,5.79h-16.73c.03,2.06.25,3.78.65,5.16s.97,2.49,1.7,3.34c.73.85,1.62,1.45,2.65,1.8,1.03.35,2.19.52,3.46.52,1.7,0,3.16-.2,4.36-.61,1.2-.41,2.29-.84,3.26-1.29v1.5c-.4.4-.93.84-1.58,1.33-.65.49-1.4.94-2.25,1.38-.85.43-1.81.79-2.88,1.08-1.07.28-2.22.43-3.46.43M168.36,16.83c-1.54,0-2.82.7-3.86,2.1-1.04,1.4-1.62,3.71-1.75,6.91l9.77-.5c0-1.5-.06-2.8-.17-3.88-.12-1.09-.33-1.97-.65-2.65-.32-.68-.74-1.18-1.28-1.5-.54-.32-1.22-.48-2.05-.48"/>
  <path class="cls-4" d="M93.06,90.63c-2.1,0-3.95-.32-5.54-.95-1.59-.63-2.91-1.54-3.96-2.73-1.05-1.18-1.84-2.62-2.38-4.31-.54-1.69-.8-3.58-.8-5.69s.35-3.99,1.05-5.66c.7-1.67,1.64-3.08,2.83-4.23,1.18-1.15,2.54-2.04,4.06-2.65,1.52-.62,3.1-.93,4.74-.93s3.16.22,4.48.67c1.32.45,2.45,1.18,3.38,2.18.93,1,1.65,2.3,2.15,3.88.5,1.59.77,3.52.8,5.79h-16.73c.03,2.06.25,3.78.65,5.16s.97,2.49,1.7,3.34c.73.85,1.62,1.45,2.65,1.8,1.03.35,2.19.52,3.46.52,1.7,0,3.16-.2,4.36-.61,1.2-.41,2.29-.84,3.26-1.29v1.5c-.4.4-.93.84-1.58,1.33-.65.49-1.4.94-2.25,1.38-.85.43-1.81.79-2.88,1.08-1.07.28-2.22.43-3.46.43M92.76,65.24c-1.54,0-2.82.7-3.86,2.1-1.04,1.4-1.62,3.71-1.75,6.91l9.77-.5c0-1.5-.06-2.8-.17-3.88-.12-1.09-.33-1.97-.65-2.65-.32-.68-.74-1.18-1.28-1.5-.54-.32-1.22-.48-2.05-.48"/>
  <path class="cls-4" d="M207.54,90.63c-2.1,0-3.95-.32-5.54-.95-1.59-.63-2.91-1.54-3.96-2.73-1.05-1.18-1.84-2.62-2.38-4.31-.54-1.69-.8-3.58-.8-5.69s.35-3.99,1.05-5.66c.7-1.67,1.64-3.08,2.83-4.23,1.18-1.15,2.54-2.04,4.06-2.65,1.52-.62,3.1-.93,4.74-.93s3.16.22,4.48.67c1.32.45,2.45,1.18,3.38,2.18.93,1,1.65,2.3,2.15,3.88.5,1.59.77,3.52.8,5.79h-16.73c.03,2.06.25,3.78.65,5.16s.97,2.49,1.7,3.34c.73.85,1.62,1.45,2.65,1.8,1.03.35,2.19.52,3.46.52,1.7,0,3.16-.2,4.36-.61,1.2-.41,2.29-.84,3.26-1.29v1.5c-.4.4-.93.84-1.58,1.33-.65.49-1.4.94-2.25,1.38-.85.43-1.81.79-2.88,1.08-1.07.28-2.22.43-3.46.43M207.23,65.24c-1.54,0-2.82.7-3.86,2.1-1.04,1.4-1.62,3.71-1.75,6.91l9.77-.5c0-1.5-.06-2.8-.17-3.88-.12-1.09-.34-1.97-.65-2.65-.32-.68-.74-1.18-1.28-1.5-.54-.32-1.22-.48-2.05-.48"/>
  <path class="cls-4" d="M223.24,42.23c-2,0-3.57-.48-4.71-1.43-1.13-.95-1.7-2.55-1.7-4.79v-17.62h-3.31v-1.1c1.84-.66,3.43-1.64,4.78-2.94,1.35-1.3,2.38-2.94,3.08-4.93h2.15v6.41h6.81l-.6,2.56h-6.21v17.12c0,1.17.24,2.02.73,2.54.48.52,1.33.78,2.53.78.67,0,1.34-.06,2.03-.18.68-.12,1.26-.24,1.73-.38v1.25c-.27.23-.63.51-1.08.82-.45.32-.98.61-1.58.88-.6.27-1.29.5-2.08.7-.79.2-1.64.3-2.58.3"/>
  <path class="cls-4" d="M164.15,56.48c0,1.91-1.54,3.45-3.45,3.45s-3.45-1.55-3.45-3.45,1.54-3.45,3.45-3.45,3.45,1.55,3.45,3.45"/>
  <path class="cls-4" d="M164.18,85.83v-21.62h-9.7v1.13l1.57.39c1.32.34,1.57.59,1.57,2.69v17.4c0,2.01-.25,2.3-1.57,2.69l-1.57.39v1.13h12.83v-1.13l-1.57-.39c-1.32-.34-1.57-.58-1.57-2.69"/>
  <path class="cls-4" d="M57.01,126.75l1.12-.23c.78-.14,1.03-.32,1.03-1.96v-14.18c0-1.64-.26-1.78-1.03-1.96l-1.12-.23v-.69h8.6c4.83,0,7.39,1.38,7.39,4.72,0,2.62-1.82,4.03-5.07,4.54v.14c3.94.4,6.07,1.84,6.07,4.92,0,3.65-2.82,5.61-7.59,5.61h-9.41v-.69ZM65.32,116.48c2.39,0,3.42-1.24,3.42-3.74,0-3.16-1.06-4.08-3.4-4.08-.78,0-1.52.09-1.9.17v7.65h1.87ZM69.46,122.01c0-3.19-1.06-4.4-3.83-4.4h-2.19v6.67c0,1.78.32,2.01,2.5,2.01s3.51-1.15,3.51-4.29"/>
  <path class="cls-4" d="M75.3,123.99c0-2.45,2.07-3.54,4.75-4.17l3.39-.83v-2.68c0-2.22-.37-3.08-2.3-3.08-1.03,0-1.32.23-1.41,1.06-.14,1.47-.55,2.24-1.96,2.24-1.18,0-1.75-.66-1.75-1.61,0-1.84,2.59-2.73,5.92-2.73,3.51,0,5.35,1.18,5.35,3.88v8.31c0,.95.17,1.38.72,1.67.35.17.87.26,1.35.26v.61c-.49.37-1.61.86-2.99.86-1.58,0-2.47-.66-2.73-1.73h-.14c-.72.95-2.13,1.75-3.89,1.75-2.67,0-4.31-1.38-4.31-3.82M83.44,124.97v-4.63l-1.67.17c-1.64.15-2.64.86-2.64,2.96,0,1.78.89,2.56,2.24,2.56,1.04,0,1.75-.49,2.07-1.06"/>
  <path class="cls-4" d="M122.34,123.99c0-2.45,2.07-3.54,4.75-4.17l3.39-.83v-2.68c0-2.22-.37-3.08-2.3-3.08-1.03,0-1.32.23-1.41,1.06-.14,1.47-.55,2.24-1.96,2.24-1.18,0-1.75-.66-1.75-1.61,0-1.84,2.59-2.73,5.92-2.73,3.51,0,5.35,1.18,5.35,3.88v8.31c0,.95.17,1.38.72,1.67.35.17.87.26,1.35.26v.61c-.49.37-1.61.86-2.99.86-1.58,0-2.47-.66-2.73-1.73h-.14c-.72.95-2.13,1.75-3.89,1.75-2.67,0-4.31-1.38-4.31-3.82M130.48,124.97v-4.63l-1.67.17c-1.64.15-2.65.86-2.65,2.96,0,1.78.89,2.56,2.24,2.56,1.04,0,1.75-.49,2.07-1.06"/>
  <path class="cls-4" d="M140.75,126.75l1.21-.23c.8-.15,1.03-.32,1.03-1.96v-14.18c0-1.64-.23-1.81-1.03-1.96l-1.21-.23v-.69h8.83v.69l-1.21.23c-.86.17-1.04.32-1.04,1.96v14.18c0,1.64.17,1.78,1.04,1.96l1.21.23v.69h-8.83v-.69Z"/>
  <path class="cls-4" d="M160.09,105.61c-4.14,0-6.85,2.27-6.85,6.01v.98l-2.01.89v.63h2.01v10.84c0,1.18-.14,1.35-.92,1.58l-.92.23v.66h7.85v-.66l-1.27-.26c-.78-.14-.89-.32-.89-1.67v-10.73h2.16v-1.5h-2.16v-2.85c0-2.45,1.09-3.16,2.21-3.16.35,0,.46.14.55.78.12,1.24.66,1.75,1.84,1.75,1.03,0,1.61-.6,1.61-1.52,0-1.27-1.12-2.01-3.22-2.01"/>
  <path class="cls-4" d="M167,124.97v-12.34h-5.7v.66l.92.23c.78.2.92.35.92,1.58v9.87c0,1.18-.14,1.35-.92,1.58l-.92.23v.66h7.54v-.66l-.92-.23c-.78-.2-.92-.34-.92-1.58"/>
  <path class="cls-4" d="M106.14,126.55c-.75-.2-.92-.37-.92-1.58v-8.92c0-2.59-1.18-3.83-3.8-3.83-1.99,0-3.94.92-5.41,1.96v-1.55h-5.7v.66l.92.23c.78.2.92.34.92,1.58v9.87c0,1.18-.14,1.35-.92,1.58l-.92.23v.66h7.45v-.66l-.89-.23c-.74-.2-.86-.29-.86-1.58v-9.92c.72-.17,1.98-.52,3.16-.52,1.52,0,2.18.6,2.18,2.45v8c0,1.29-.11,1.38-.86,1.58l-.89.23v.66h7.45v-.66l-.92-.23Z"/>
  <path class="cls-4" d="M107.94,120.14c0-6.07,4.66-7.94,8.46-7.94,2.79,0,4.32.95,4.32,2.59,0,1.04-.75,1.81-1.87,1.81-1.35,0-1.75-.86-1.9-1.96-.14-1.18-.37-1.38-1.32-1.38-1.92,0-3.77,1.21-3.77,5.73s1.35,6.64,4.57,6.64c1.81,0,3.31-.61,4.32-1.12v.89c-.83.92-2.91,2.39-5.81,2.39-4.51,0-6.99-3.08-6.99-7.65"/>
  <path class="cls-4" d="M176.91,113.3c-.13-.02-3.27-.47-3.27,1.95,0,1.18.77,1.99,3.17,2.88,3.21,1.15,4.75,2.45,4.75,4.66,0,2.91-2.31,5-6.35,5-1.69,0-3.31-.27-4.52-.64l-.09-4.36h.72c.37,4.27,4.3,3.97,4.3,3.97,1.54,0,2.7-.83,2.7-2.24s-.98-2.1-3.5-3.05c-2.61-.98-4.3-2.24-4.3-4.63,0-2.7,2.34-4.63,5.99-4.63,1.66,0,3.04.26,3.96.61l.08,3.76h-.72c-.11-2.42-1.82-3.09-2.94-3.27"/>
  <rect class="cls-5" x="13.14" y="20.31" width="8.1" height="8.1" transform="translate(-12.19 19.3) rotate(-45.03)"/>
  <rect class="cls-5" x="20.3" y="27.48" width="8.1" height="8.1" transform="translate(-15.16 26.45) rotate(-44.99)"/>
  <rect class="cls-5" x="27.48" y="20.31" width="8.1" height="8.1" transform="translate(-7.99 29.42) rotate(-44.99)"/>
  <rect class="cls-5" x="20.3" y="13.13" width="8.1" height="8.1" transform="translate(-5.02 22.25) rotate(-44.99)"/>
  <rect class="cls-1" x="1.68" y="20.31" width="8.1" height="8.1" transform="translate(-15.55 11.19) rotate(-45.01)"/>
  <rect class="cls-1" x="20.3" y="38.94" width="8.1" height="8.1" transform="translate(-23.26 29.82) rotate(-45.01)"/>
  <rect class="cls-1" x="38.93" y="20.31" width="8.1" height="8.1" transform="translate(-4.63 37.55) rotate(-45.03)"/>
  <rect class="cls-1" x="20.3" y="1.68" width="8.1" height="8.1" transform="translate(3.08 18.9) rotate(-44.99)"/>
  <rect class="cls-2" x="7.41" y="14.58" width="8.1" height="8.1" transform="translate(-9.82 13.57) rotate(-45.03)"/>
  <path class="cls-2" d="M18.63,42.99l-.07-.07c-3.12-3.12-3.12-8.19,0-11.32l.07-.07,5.73,5.73-5.73,5.73Z"/>
  <rect class="cls-2" x="33.21" y="26.04" width="8.1" height="8.1" transform="translate(-10.36 35.15) rotate(-44.99)"/>
  <path class="cls-2" d="M30.08,5.73l.07.07c3.12,3.12,3.12,8.19,0,11.32l-.07.07-5.73-5.73,5.73-5.73Z"/>
  <path class="cls-3" d="M17.19,30.09l-.07.07c-3.13,3.13-8.2,3.13-11.32,0l-.07-.07,5.73-5.73,5.73,5.73Z"/>
  <path class="cls-3" d="M30.08,42.99l.07-.07c3.12-3.12,3.12-8.19,0-11.32l-.07-.07-5.73,5.73,5.73,5.73Z"/>
  <path class="cls-3" d="M31.53,18.63l.06-.07c3.13-3.13,8.2-3.13,11.32,0l.07.07-5.72,5.73-5.73-5.73Z"/>
  <path class="cls-3" d="M18.63,5.73l-.07.07c-3.12,3.12-3.12,8.19,0,11.32l.07.07,5.73-5.73-5.73-5.73Z"/>
  <path class="cls-4" d="M55.36,40.41l2.1-.4c1.4-.25,1.8-.55,1.8-3.41V11.92c0-2.86-.4-3.15-1.8-3.41l-2.1-.4v-1.2h15.38v1.2l-2.1.4c-1.51.3-1.81.55-1.81,3.41v24.69c0,2.86.3,3.11,1.81,3.41l2.1.4v1.2h-15.38v-1.2Z"/>
  <path class="cls-4" d="M89.05,3.6c-7.22,0-11.92,3.96-11.92,10.47v1.7l-3.51,1.55v1.1h3.51v18.88c0,2.05-.25,2.36-1.6,2.75l-1.6.4v1.15h13.68v-1.15l-2.21-.45c-1.35-.25-1.55-.55-1.55-2.91v-18.68h3.76v-2.6h-3.76v-4.96c0-4.26,1.9-5.51,3.85-5.51.6,0,.8.25.95,1.35.21,2.15,1.15,3.06,3.21,3.06,1.8,0,2.81-1.05,2.81-2.65,0-2.2-1.96-3.51-5.61-3.51"/>
  <path class="cls-4" d="M101.08,37.31V15.82h-9.92v1.15l1.61.4c1.35.35,1.6.6,1.6,2.75v17.18c0,2.05-.25,2.35-1.6,2.75l-1.61.4v1.15h13.12v-1.15l-1.6-.4c-1.35-.35-1.6-.6-1.6-2.75"/>
  <path class="cls-4" d="M118.33,16.99c-.22-.04-5.69-.82-5.69,3.4,0,2.05,1.35,3.45,5.53,5.01,5.58,2,8.26,4.26,8.26,8.11,0,5.06-4.03,8.71-11.05,8.71-2.94,0-5.76-.46-7.87-1.12l-.15-7.6h1.25c.64,7.44,7.49,6.91,7.49,6.91,2.69,0,4.7-1.45,4.7-3.91s-1.7-3.66-6.1-5.31c-4.54-1.7-7.48-3.91-7.48-8.06,0-4.71,4.08-8.06,10.43-8.06,2.89,0,5.3.46,6.9,1.06l.15,6.55h-1.25c-.19-4.22-3.18-5.39-5.11-5.7"/>
  <path class="cls-4" d="M144.22,64.24v1.15l1.35.35c.97.23,1.45.82,1.45,1.75,0,.64-.22,1.55-.65,2.76l-4.51,12.57h-.25l-4.61-12.57c-.2-.57-.36-1.07-.48-1.5-.12-.43-.17-.82-.17-1.15,0-.53.1-.94.3-1.2.2-.27.58-.48,1.15-.65l1.35-.35v-1.15h-11.91l1.59,3.56s0,.01.01.02c.2.42.43.94.7,1.58l8.21,20.64h3.51l7.77-20.09c.27-.73.51-1.35.73-1.85.22-.5.42-.91.63-1.23.2-.32.42-.57.65-.75.23-.18.52-.33.85-.42l1.15-.3v-1.15h-8.82Z"/>
  <path class="cls-4" d="M115.78,67.14h-.25v-2.93h-9.6v1.14l1.59.4c1.34.35,1.59.6,1.59,2.74v17.28c0,.5,0,.9-.04,1.22-.03.32-.11.57-.22.77-.12.2-.28.35-.5.45-.22.1-.49.2-.82.3l-1.59.4v1.14h13.32v-1.14l-1.99-.4c-.3-.07-.55-.14-.74-.22s-.36-.22-.47-.4c-.11-.18-.19-.44-.22-.77-.03-.33-.05-.78-.05-1.34v-16.74c.2-.2.44-.4.72-.6.28-.2.57-.37.87-.52.3-.15.6-.27.89-.37.3-.1.56-.15.8-.15s.41.05.55.15c.13.1.26.3.4.6.2.33.39.63.57.89.18.26.4.48.65.64.25.17.55.3.89.4.35.1.79.15,1.32.15.86,0,1.59-.29,2.19-.87.6-.58.89-1.4.89-2.46,0-1.13-.31-1.98-.94-2.56-.63-.58-1.51-.87-2.63-.87-.66,0-1.33.12-2.01.35-.68.23-1.33.52-1.96.87-.63.35-1.22.74-1.77,1.17-.55.43-1.02.86-1.42,1.29"/>
</svg>